<svg width="134" height="165" viewBox="0 0 134 165" fill="none" xmlns="http://www.w3.org/2000/svg">
<mask id="mask0_12_10" style="mask-type:alpha" maskUnits="userSpaceOnUse" x="1" y="1" width="132" height="163">
<rect y="33.9441" width="73.4519" height="147.634" rx="3" transform="rotate(-27.5244 0 33.9441)" fill="#C7C0C0"/>
</mask>
<g mask="url(#mask0_12_10)">
<path d="M8.09091 148V54.9091H44.8182C51.8485 54.9091 57.8485 56.1667 62.8182 58.6818C67.8182 61.1667 71.6212 64.697 74.2273 69.2727C76.8636 73.8182 78.1818 79.1667 78.1818 85.3182C78.1818 91.5 76.8485 96.8182 74.1818 101.273C71.5152 105.697 67.6515 109.091 62.5909 111.455C57.5606 113.818 51.4697 115 44.3182 115H19.7273V99.1818H41.1364C44.8939 99.1818 48.0152 98.6667 50.5 97.6364C52.9849 96.6061 54.8333 95.0606 56.0455 93C57.2879 90.9394 57.9091 88.3788 57.9091 85.3182C57.9091 82.2273 57.2879 79.6212 56.0455 77.5C54.8333 75.3788 52.9697 73.7727 50.4545 72.6818C47.9697 71.5606 44.8333 71 41.0455 71H27.7727V148H8.09091ZM58.3636 105.636L81.5 148H59.7727L37.1364 105.636H58.3636Z" fill="black"/>
</g>
</svg>
